<svg version="1.1" id="Layer_1" xmlns="http://www.w3.org/2000/svg" xmlns:xlink="http://www.w3.org/1999/xlink" x="0px" y="0px"
	 width="100%" viewBox="0 0 316 316" enable-background="new 0 0 316 316" xml:space="preserve">
<path fill="#363636" opacity="1.000000" stroke="none" 
	d="
M317.000000,266.000000 
	C317.000000,282.993164 317.000000,299.986328 317.000000,316.984619 
	C211.715881,316.989746 106.431770,316.989746 1.073828,316.989746 
	C1.073828,211.758316 1.073828,106.516548 1.073828,1.137396 
	C106.333214,1.137396 211.666580,1.137396 317.000000,1.137396 
	C317.000000,30.086142 317.000000,59.074413 316.653320,88.444695 
	C315.608856,87.585342 314.089325,86.131271 314.346710,85.137177 
	C316.009003,78.715958 311.004425,78.246231 307.543823,76.440247 
	C305.827118,78.141800 304.385986,79.570183 302.821930,80.582527 
	C302.600861,78.554443 302.502747,76.942406 302.399475,75.245270 
	C255.872635,75.245270 209.690201,75.245270 163.330353,75.245270 
	C163.168579,78.741188 163.023697,81.871964 162.527496,84.984276 
	C161.578827,83.901802 160.427689,82.808182 160.482727,81.779068 
	C160.689011,77.922325 158.745850,75.126740 155.400970,75.023041 
	C150.866364,74.882454 152.086502,78.276909 152.036041,80.676811 
	C151.872513,88.456253 152.708694,96.329567 148.860596,103.648460 
	C148.481384,104.369728 149.450378,106.389351 150.350906,107.088089 
	C153.595993,109.606003 156.017273,112.119522 154.179474,116.726128 
	C153.710556,117.901466 154.029480,119.971657 154.820663,120.968773 
	C158.258194,125.301048 162.121780,128.929062 168.039520,130.041260 
	C178.232803,131.957031 188.322464,133.547897 198.505035,130.156281 
	C199.241302,129.911057 200.150558,130.147568 200.975388,130.211609 
	C208.569550,130.801270 216.156281,131.761612 223.758179,131.900116 
	C231.542328,132.041962 239.338791,131.239410 247.134094,131.114090 
	C254.657928,130.993134 262.189789,131.109039 269.713287,131.305435 
	C276.833740,131.491302 284.288879,130.685562 290.981384,132.538574 
	C299.997620,135.034973 308.366699,133.362259 317.000000,132.000000 
	C317.000000,133.714355 317.000000,135.428711 316.634644,137.581451 
	C311.737091,140.470154 306.635681,142.277924 304.999756,148.441895 
	C304.267426,150.243774 303.537781,151.604462 302.686554,152.601852 
	C302.564941,149.950211 302.564941,147.661880 302.564941,144.878769 
	C300.224030,144.878769 298.438629,144.878891 296.653229,144.878754 
	C235.237030,144.873978 173.820847,144.882965 112.404663,144.854446 
	C97.599571,144.847580 82.794540,144.716629 67.984848,144.257721 
	C68.386215,140.800858 66.893158,139.680847 63.999924,140.000000 
	C64.000000,140.000000 64.000305,140.000000 63.983139,139.578568 
	C63.643635,136.033325 63.010536,132.903732 63.068607,129.787003 
	C63.166359,124.541054 64.032089,119.300102 63.981503,114.062782 
	C63.895721,105.181923 63.236221,96.308044 63.037266,87.426308 
	C62.919674,82.176964 60.954594,79.970573 54.584164,78.604568 
	C54.607121,75.798248 53.767639,74.800713 51.061047,74.851646 
	C41.974945,75.022621 32.882919,74.858307 23.793987,74.928703 
	C22.784668,74.936523 21.780640,75.627357 20.488647,76.076401 
	C19.802057,76.767471 19.400978,77.383583 18.572205,77.999771 
	C15.884630,78.566536 12.252798,76.323982 11.639215,81.096085 
	C10.519304,83.599899 9.212293,85.984276 9.105727,88.421143 
	C8.806266,95.269020 9.001295,102.138535 9.000975,109.416260 
	C9.000888,111.222183 9.001145,112.611359 9.001058,114.469131 
	C9.002021,124.397552 9.004072,133.857376 9.004383,143.317215 
	C9.004599,149.877945 9.002416,156.438660 9.000960,163.416153 
	C9.000853,165.222153 9.001089,166.611374 9.001005,168.468155 
	C9.000932,174.290268 9.001178,179.644821 9.001053,185.436966 
	C9.000922,187.916565 9.001163,189.958588 9.060354,192.309769 
	C9.746223,193.079086 10.373140,193.539230 10.999949,194.436966 
	C10.999917,196.916565 10.999996,198.958588 10.633939,201.108734 
	C9.845614,203.477692 9.423429,205.738541 9.000902,208.467377 
	C9.000841,214.623764 9.001122,220.312195 9.001162,226.429016 
	C9.001078,230.238098 9.001234,233.618774 9.010342,237.359589 
	C10.012316,238.813950 11.005340,239.908188 11.979597,241.376984 
	C11.295916,242.617722 10.557975,243.438126 9.980753,244.359238 
	C8.629273,246.515823 7.988996,248.604645 10.999901,250.375076 
	C10.999866,251.500305 10.999971,252.250458 10.637586,253.106384 
	C8.081414,257.634064 9.310375,263.383362 13.578824,266.927277 
	C14.626628,267.797241 16.503698,267.668396 18.375734,268.001556 
	C20.555357,269.254761 22.869888,270.150269 24.042402,271.838776 
	C25.802189,274.373047 27.149458,274.709839 30.126656,273.639648 
	C38.232452,270.725769 46.292892,271.627106 53.799599,275.282806 
	C61.172333,270.900482 67.243004,265.296356 69.058884,256.619446 
	C69.998062,252.131775 70.205658,247.421402 70.142326,242.819916 
	C70.105011,240.108582 69.584145,236.914810 68.070129,234.807968 
	C64.103859,229.288620 63.879898,219.954941 68.014870,214.353561 
	C68.939812,213.100586 69.456245,211.095337 69.264282,209.547607 
	C68.485657,203.269974 69.714935,202.160400 75.983299,203.138107 
	C81.675171,204.025879 87.439438,204.783630 93.185951,204.900223 
	C99.961441,205.037704 106.751335,204.212936 113.536484,204.186310 
	C123.359406,204.147751 133.465088,208.931717 142.878479,202.279999 
	C143.355972,201.942612 144.169693,202.042816 144.830429,202.008865 
	C151.541824,201.664291 158.252090,201.100128 164.966278,201.045898 
	C182.045273,200.907990 199.126297,200.961975 216.206070,201.038040 
	C219.000107,201.050507 221.808197,201.915314 224.581802,201.786011 
	C234.318695,201.332092 244.045425,200.645569 253.770416,199.967178 
	C255.195801,199.867752 256.590881,199.333847 258.468658,199.001022 
	C265.387451,199.001312 271.838287,198.952408 278.287231,199.040115 
	C279.702850,199.059357 281.837402,199.084473 282.396820,199.929993 
	C284.677246,203.376556 286.281616,201.521271 288.216858,199.270523 
	C289.535034,201.384293 290.537292,203.455765 291.976044,205.158417 
	C293.230682,206.643158 295.131378,208.869431 296.470459,208.691391 
	C298.441986,208.429245 300.168121,206.321564 302.346191,204.949066 
	C307.462433,202.265427 312.231232,199.632721 317.000000,197.000000 
	C317.000000,209.020889 317.000000,221.041794 316.628662,233.470306 
	C315.172791,232.070511 313.531982,230.375488 313.138489,228.428421 
	C312.595093,225.739014 313.322205,222.802322 312.850830,220.085037 
	C312.604523,218.664932 311.214386,216.934952 309.889160,216.322678 
	C307.575134,215.253540 304.912231,214.939514 301.967560,214.284164 
	C255.502747,214.259293 209.465897,214.259293 163.354477,214.259293 
	C163.181458,218.042282 163.045181,221.022217 162.531769,224.015366 
	C159.000000,224.450211 156.811356,225.747955 156.932907,229.415604 
	C156.957748,230.165115 156.648941,231.289474 156.107025,231.636032 
	C152.011078,234.255585 152.740402,238.239532 153.247269,241.970367 
	C153.921967,246.936691 154.692612,251.937454 156.052628,256.745026 
	C156.843704,259.541473 158.446075,262.379578 160.421616,264.516418 
	C165.357788,269.855713 171.531906,271.299255 178.600861,269.184570 
	C180.288345,268.679779 182.239838,268.971313 184.065659,269.029572 
	C193.456146,269.329163 202.845795,269.946777 212.234665,269.927734 
	C223.015640,269.905853 233.801407,268.943268 244.574173,269.107361 
	C255.824799,269.278748 267.069305,270.205780 278.303406,270.990234 
	C286.333862,271.550995 294.283691,273.353912 302.281860,270.140137 
	C306.983368,268.251007 312.080688,267.347046 317.000000,266.000000 
z"/>
<path fill="#323232" opacity="1.000000" stroke="none" 
	d="
M9.001390,236.999451 
	C9.001234,233.618774 9.001078,230.238098 9.370834,226.541809 
	C10.418441,228.916245 11.096134,231.606293 11.773828,234.296341 
	C12.289932,234.291138 12.806037,234.285934 13.322142,234.280746 
	C13.322142,231.427139 13.378034,228.572220 13.309976,225.720230 
	C13.185722,220.513412 12.789828,215.304810 12.882848,210.103653 
	C12.959292,205.829285 13.890776,201.564072 13.883007,197.295822 
	C13.872647,191.603165 13.097912,185.913620 13.043784,180.219009 
	C12.910132,166.157806 12.698763,152.086090 13.091166,138.034576 
	C13.432407,125.815079 11.202186,113.454224 14.830186,101.366386 
	C15.173570,100.222305 14.489830,98.785179 14.346224,97.477158 
	C13.572784,90.432373 10.690029,82.875992 18.999899,77.999695 
	C19.400978,77.383583 19.802057,76.767471 20.578524,76.537437 
	C20.993153,108.078407 21.020697,139.233322 21.075237,170.388199 
	C21.121025,196.542374 21.198275,222.696487 20.970036,249.116547 
	C19.048967,256.814667 23.769043,263.098572 31.139425,262.957245 
	C37.721687,262.831024 44.294708,262.280609 50.876133,262.031921 
	C55.125942,261.871368 57.397125,258.942963 56.741188,255.611420 
	C55.859051,251.130966 57.979076,247.796402 59.389519,243.990768 
	C63.508362,243.464157 63.050365,241.268173 62.297985,238.485992 
	C61.278942,234.717728 60.045662,230.800201 60.146980,226.979675 
	C60.352581,219.226868 60.991081,211.425186 62.340553,203.801056 
	C62.729393,201.604202 66.083809,198.383469 68.200874,198.285919 
	C85.379333,197.494370 102.585709,197.126114 119.785851,197.028305 
	C149.240509,196.860779 178.697708,197.094223 208.151321,196.851166 
	C212.109665,196.818512 216.053238,194.996490 220.447281,194.002731 
	C223.259445,194.002625 225.628006,194.002838 228.118378,194.383057 
	C230.082352,195.175491 231.915924,195.896515 233.768127,195.948029 
	C242.730453,196.197357 251.698380,196.406754 260.663147,196.366486 
	C273.403320,196.309265 286.174377,196.464813 298.861786,195.551056 
	C302.473633,195.290939 307.706818,193.807663 308.000000,187.625076 
	C307.999573,186.500305 307.999176,185.750458 307.999268,184.600586 
	C308.000244,183.133911 308.000732,182.067261 308.002136,180.751358 
	C308.003052,180.502106 308.003601,180.003586 308.364899,179.939713 
	C312.652710,177.384293 311.034943,174.699097 309.001343,171.666168 
	C309.001312,170.888626 309.001251,170.444305 309.261658,169.691986 
	C310.902771,160.592712 309.495819,157.346634 302.724365,153.707001 
	C302.679993,153.297134 302.744080,153.131149 302.808167,152.965149 
	C303.537781,151.604462 304.267426,150.243774 305.354614,148.501389 
	C306.475372,149.086319 307.257019,150.038986 307.998383,151.022003 
	C311.005676,155.009598 314.000549,159.006516 317.000000,163.000000 
	C317.000000,163.750000 317.000000,164.500000 316.666016,165.695679 
	C315.013489,168.147415 312.764160,170.065155 312.563843,172.177261 
	C312.100922,177.057922 313.199982,182.107010 312.568787,186.944687 
	C312.108368,190.473541 310.784729,194.901123 308.247955,196.896301 
	C304.943420,199.495346 300.695465,202.693481 295.492126,200.183014 
	C294.762238,199.830872 293.543579,200.491699 292.551178,200.683624 
	C292.486084,201.157288 292.420990,201.630951 292.355896,202.104614 
	C295.570190,203.069748 298.784485,204.034866 301.998779,205.000000 
	C300.168121,206.321564 298.441986,208.429245 296.470459,208.691391 
	C295.131378,208.869431 293.230682,206.643158 291.976044,205.158417 
	C290.537292,203.455765 289.535034,201.384293 288.216858,199.270523 
	C286.281616,201.521271 284.677246,203.376556 282.396820,199.929993 
	C281.837402,199.084473 279.702850,199.059357 278.287231,199.040115 
	C271.838287,198.952408 265.387451,199.001312 258.149353,198.735168 
	C255.553268,198.312851 253.742249,197.993271 251.937531,198.025497 
	C235.716888,198.315155 219.498199,198.894547 203.277328,198.954422 
	C164.861130,199.096222 126.443985,198.962448 88.027451,199.044815 
	C82.898727,199.055801 77.770432,199.661438 72.643547,200.014954 
	C68.207977,200.320816 66.255180,202.817398 65.941513,207.162048 
	C65.766403,209.587570 64.532372,211.953812 64.463112,214.366516 
	C64.266968,221.199631 63.403805,228.263199 64.814125,234.802322 
	C65.707512,238.944656 67.843704,242.258835 64.687248,246.213577 
	C64.046448,247.016418 64.272682,248.770844 64.534546,249.993317 
	C66.510208,259.216339 63.577457,263.562286 55.399296,268.970947 
	C54.420208,269.618469 52.923157,269.687469 51.668781,269.678070 
	C46.621853,269.640228 41.488693,268.819031 36.548882,269.485046 
	C27.813976,270.662659 17.388021,265.026062 14.774170,256.749023 
	C13.727976,253.436127 12.985836,250.027222 12.105291,246.662018 
	C11.890085,246.678604 11.674878,246.695190 11.459671,246.711777 
	C11.306459,247.807861 11.153248,248.903931 11.000038,250.000000 
	C7.988996,248.604645 8.629273,246.515823 9.980753,244.359238 
	C10.557975,243.438126 11.295916,242.617722 11.977419,240.993622 
	C10.996468,239.156937 9.998928,238.078186 9.001390,236.999451 
z"/>
<path fill="#323232" opacity="1.000000" stroke="none" 
	d="
M317.000000,131.531342 
	C308.366699,133.362259 299.997620,135.034973 290.981384,132.538574 
	C284.288879,130.685562 276.833740,131.491302 269.713287,131.305435 
	C262.189789,131.109039 254.657928,130.993134 247.134094,131.114090 
	C239.338791,131.239410 231.542328,132.041962 223.758179,131.900116 
	C216.156281,131.761612 208.569550,130.801270 200.975388,130.211609 
	C200.150558,130.147568 199.241302,129.911057 198.505035,130.156281 
	C188.322464,133.547897 178.232803,131.957031 168.039520,130.041260 
	C162.121780,128.929062 158.258194,125.301048 154.820663,120.968773 
	C154.029480,119.971657 153.710556,117.901466 154.179474,116.726128 
	C156.017273,112.119522 153.595993,109.606003 150.350906,107.088089 
	C149.450378,106.389351 148.481384,104.369728 148.860596,103.648460 
	C152.708694,96.329567 151.872513,88.456253 152.036041,80.676811 
	C152.086502,78.276909 150.866364,74.882454 155.400970,75.023041 
	C158.745850,75.126740 160.689011,77.922325 160.482727,81.779068 
	C160.427689,82.808182 161.578827,83.901802 162.623810,85.393776 
	C163.015167,87.215652 162.958923,88.609558 162.541565,90.020706 
	C158.146790,92.609093 156.895920,96.334785 158.439774,100.665154 
	C158.808502,101.699409 159.198502,103.332764 158.684753,103.971031 
	C156.328659,106.898216 157.975113,109.091736 159.503418,111.487740 
	C160.075790,112.385109 160.782272,113.659370 160.551865,114.530037 
	C159.231186,119.520363 162.592712,121.511177 166.154266,122.382545 
	C172.709808,123.986412 179.413528,125.459763 186.121857,125.851707 
	C195.944855,126.425621 205.828079,126.119019 215.682419,125.971428 
	C230.572342,125.748428 245.458267,125.206993 260.348358,125.072815 
	C266.469147,125.017662 272.592987,125.816238 278.721588,125.955330 
	C284.142914,126.078384 289.580994,125.983833 294.997223,125.704552 
	C305.902008,125.142227 307.843719,122.936760 308.073822,112.153542 
	C308.120880,109.949471 309.146942,107.775848 309.629517,105.568039 
	C309.933868,104.175774 310.448639,102.677345 310.208893,101.345360 
	C309.300171,96.296700 308.350830,91.228821 306.898315,86.321579 
	C306.490417,84.943542 304.307495,84.090919 302.813843,82.671555 
	C302.774231,81.896706 302.859528,81.447609 302.944855,80.998543 
	C304.385986,79.570183 305.827118,78.141800 307.543823,76.440247 
	C311.004425,78.246231 316.009003,78.715958 314.346710,85.137177 
	C314.089325,86.131271 315.608856,87.585342 316.653320,88.913353 
	C317.000000,103.020897 317.000000,117.041786 317.000000,131.531342 
z"/>
<path fill="#323232" opacity="1.000000" stroke="none" 
	d="
M302.395538,214.309021 
	C304.912231,214.939514 307.575134,215.253540 309.889160,216.322678 
	C311.214386,216.934952 312.604523,218.664932 312.850830,220.085037 
	C313.322205,222.802322 312.595093,225.739014 313.138489,228.428421 
	C313.531982,230.375488 315.172791,232.070511 316.628662,233.938965 
	C317.000000,244.354233 317.000000,254.708450 317.000000,265.531342 
	C312.080688,267.347046 306.983368,268.251007 302.281860,270.140137 
	C294.283691,273.353912 286.333862,271.550995 278.303406,270.990234 
	C267.069305,270.205780 255.824799,269.278748 244.574173,269.107361 
	C233.801407,268.943268 223.015640,269.905853 212.234665,269.927734 
	C202.845795,269.946777 193.456146,269.329163 184.065659,269.029572 
	C182.239838,268.971313 180.288345,268.679779 178.600861,269.184570 
	C171.531906,271.299255 165.357788,269.855713 160.421616,264.516418 
	C158.446075,262.379578 156.843704,259.541473 156.052628,256.745026 
	C154.692612,251.937454 153.921967,246.936691 153.247269,241.970367 
	C152.740402,238.239532 152.011078,234.255585 156.107025,231.636032 
	C156.648941,231.289474 156.957748,230.165115 156.932907,229.415604 
	C156.811356,225.747955 159.000000,224.450211 162.631927,224.424179 
	C163.049789,226.213821 162.990356,227.607895 162.566986,229.020050 
	C158.987076,231.019043 157.445801,233.717072 156.845261,237.638657 
	C155.982452,243.272980 159.165039,247.803802 159.763474,252.885056 
	C160.340775,257.786896 163.035522,260.770172 166.882538,262.189484 
	C171.314606,263.824615 176.217041,264.638153 180.961533,264.873199 
	C189.298630,265.286255 197.670959,264.987305 206.028534,264.987457 
	C235.658890,264.988037 265.290558,265.134338 294.918457,264.865631 
	C300.749359,264.812775 307.146667,263.306305 309.259277,256.885284 
	C310.765839,252.306076 308.415588,246.794022 311.764618,242.297470 
	C311.942413,242.058792 311.668488,241.242401 311.364960,240.922729 
	C306.837616,236.154037 307.023285,230.153412 307.020264,224.237457 
	C307.018799,221.327896 305.838806,219.850342 302.730011,219.691833 
	C302.531342,217.695038 302.463440,216.002029 302.395538,214.309021 
z"/>
<path fill="#333333" opacity="1.000000" stroke="none" 
	d="
M302.346191,204.949066 
	C298.784485,204.034866 295.570190,203.069748 292.355896,202.104614 
	C292.420990,201.630951 292.486084,201.157288 292.551178,200.683624 
	C293.543579,200.491699 294.762238,199.830872 295.492126,200.183014 
	C300.695465,202.693481 304.943420,199.495346 308.247955,196.896301 
	C310.784729,194.901123 312.108368,190.473541 312.568787,186.944687 
	C313.199982,182.107010 312.100922,177.057922 312.563843,172.177261 
	C312.764160,170.065155 315.013489,168.147415 316.666016,166.070679 
	C317.000000,176.020889 317.000000,186.041794 317.000000,196.531342 
	C312.231232,199.632721 307.462433,202.265427 302.346191,204.949066 
z"/>
<path fill="#333333" opacity="1.000000" stroke="none" 
	d="
M317.000000,162.531342 
	C314.000549,159.006516 311.005676,155.009598 307.998383,151.022003 
	C307.257019,150.038986 306.475372,149.086319 305.357330,148.060181 
	C306.635681,142.277924 311.737091,140.470154 316.634644,138.009918 
	C317.000000,146.020905 317.000000,154.041809 317.000000,162.531342 
z"/>
<path fill="#FBFBFB" opacity="1.000000" stroke="none" 
	d="
M302.686554,152.601852 
	C302.744080,153.131149 302.679993,153.297134 302.595215,154.025574 
	C302.662994,155.723984 302.751434,156.859955 302.707611,158.448730 
	C302.563354,164.458969 302.653473,170.019760 302.469818,175.571518 
	C302.422180,177.012894 301.518860,178.425964 300.621307,179.719864 
	C299.157043,179.696884 298.080078,179.806091 296.548645,179.790390 
	C215.655655,179.665497 135.217072,179.665497 54.640217,179.665497 
	C54.640217,183.064697 54.640217,186.019394 54.497780,189.394150 
	C54.449425,191.866104 54.543510,193.918015 54.500069,196.393188 
	C54.443130,198.879196 54.523720,200.941925 54.469921,203.454010 
	C54.422760,209.270569 54.509987,214.637787 54.466156,220.452881 
	C54.428608,225.266373 54.522121,229.632004 54.485531,234.439774 
	C54.415829,238.246185 54.476234,241.610489 54.436905,245.240021 
	C54.410439,245.679428 54.483696,245.853561 54.448792,246.407806 
	C53.225578,247.556656 52.110527,248.325378 50.536163,248.996002 
	C42.385883,248.958298 34.694916,249.018661 26.604687,248.973389 
	C24.557484,248.862045 22.909538,248.856339 21.261595,248.850632 
	C21.198275,222.696487 21.121025,196.542374 21.075237,170.388199 
	C21.020697,139.233322 20.993153,108.078407 20.864033,76.462479 
	C21.780640,75.627357 22.784668,74.936523 23.793987,74.928703 
	C32.882919,74.858307 41.974945,75.022621 51.061047,74.851646 
	C53.767639,74.800713 54.607121,75.798248 54.437782,79.054565 
	C54.409206,98.716820 54.321503,117.548409 54.438629,136.378723 
	C54.448788,138.011398 55.810596,139.635681 56.145115,141.423309 
	C55.374790,142.390076 55.003902,143.197388 54.633018,144.004700 
	C56.093941,144.220993 57.554863,144.437302 59.455521,144.752075 
	C62.593327,144.781281 65.291405,144.712006 67.989479,144.642731 
	C82.794540,144.716629 97.599571,144.847580 112.404663,144.854446 
	C173.820847,144.882965 235.237030,144.873978 296.653229,144.878754 
	C298.438629,144.878891 300.224030,144.878769 302.564941,144.878769 
	C302.564941,147.661880 302.564941,149.950211 302.686554,152.601852 
z"/>
<path fill="#FAFAFA" opacity="1.000000" stroke="none" 
	d="
M162.930939,229.001953 
	C162.990356,227.607895 163.049789,226.213821 163.009064,224.410950 
	C163.045181,221.022217 163.181458,218.042282 163.354477,214.259293 
	C209.465897,214.259293 255.502747,214.259293 301.967560,214.284149 
	C302.463440,216.002029 302.531342,217.695038 302.600098,220.092194 
	C302.456329,225.532394 302.311768,230.268448 302.095825,235.463882 
	C302.020142,239.324921 302.166626,242.737595 301.919281,246.121475 
	C301.845367,247.132187 300.669556,248.062317 299.540222,248.924652 
	C264.371399,248.815598 229.660873,248.780838 194.950531,248.849243 
	C191.040314,248.856949 187.133972,249.656479 183.220871,249.707245 
	C179.484589,249.755722 175.741867,249.305817 171.575012,248.966278 
	C169.099640,248.921570 167.051239,248.985565 164.638977,248.880585 
	C163.914032,247.210861 163.300308,245.720520 163.237991,244.207474 
	C163.029388,239.143356 163.017899,234.071091 162.930939,229.001953 
z"/>
<path fill="#FCFCFC" opacity="1.000000" stroke="none" 
	d="
M162.902679,90.003471 
	C162.958923,88.609558 163.015167,87.215652 162.975098,85.412239 
	C163.023697,81.871964 163.168579,78.741188 163.330353,75.245270 
	C209.690201,75.245270 255.872635,75.245270 302.399475,75.245270 
	C302.502747,76.942406 302.600861,78.554443 302.821899,80.582497 
	C302.859528,81.447609 302.774231,81.896706 302.693848,83.127083 
	C302.672455,90.954254 302.742157,98.002815 302.546814,105.044014 
	C302.502625,106.637787 301.537445,108.205994 300.550049,109.635399 
	C298.438629,109.458153 296.773376,109.408585 295.108124,109.408127 
	C251.125259,109.396111 207.142410,109.389160 162.957901,109.116386 
	C162.805069,102.568771 162.853882,96.286125 162.902679,90.003471 
z"/>
<path fill="#333333" opacity="1.000000" stroke="none" 
	d="
M10.999900,250.375076 
	C11.153248,248.903931 11.306459,247.807861 11.459671,246.711777 
	C11.674878,246.695190 11.890085,246.678604 12.105291,246.662018 
	C12.985836,250.027222 13.727976,253.436127 14.774170,256.749023 
	C17.388021,265.026062 27.813976,270.662659 36.548882,269.485046 
	C41.488693,268.819031 46.621853,269.640228 51.668781,269.678070 
	C52.923157,269.687469 54.420208,269.618469 55.399296,268.970947 
	C63.577457,263.562286 66.510208,259.216339 64.534546,249.993317 
	C64.272682,248.770844 64.046448,247.016418 64.687248,246.213577 
	C67.843704,242.258835 65.707512,238.944656 64.814125,234.802322 
	C63.403805,228.263199 64.266968,221.199631 64.463112,214.366516 
	C64.532372,211.953812 65.766403,209.587570 65.941513,207.162048 
	C66.255180,202.817398 68.207977,200.320816 72.643547,200.014954 
	C77.770432,199.661438 82.898727,199.055801 88.027451,199.044815 
	C126.443985,198.962448 164.861130,199.096222 203.277328,198.954422 
	C219.498199,198.894547 235.716888,198.315155 251.937531,198.025497 
	C253.742249,197.993271 255.553268,198.312851 257.680664,198.735107 
	C256.590881,199.333847 255.195801,199.867752 253.770416,199.967178 
	C244.045425,200.645569 234.318695,201.332092 224.581802,201.786011 
	C221.808197,201.915314 219.000107,201.050507 216.206070,201.038040 
	C199.126297,200.961975 182.045273,200.907990 164.966278,201.045898 
	C158.252090,201.100128 151.541824,201.664291 144.830429,202.008865 
	C144.169693,202.042816 143.355972,201.942612 142.878479,202.279999 
	C133.465088,208.931717 123.359406,204.147751 113.536484,204.186310 
	C106.751335,204.212936 99.961441,205.037704 93.185951,204.900223 
	C87.439438,204.783630 81.675171,204.025879 75.983299,203.138107 
	C69.714935,202.160400 68.485657,203.269974 69.264282,209.547607 
	C69.456245,211.095337 68.939812,213.100586 68.014870,214.353561 
	C63.879898,219.954941 64.103859,229.288620 68.070129,234.807968 
	C69.584145,236.914810 70.105011,240.108582 70.142326,242.819916 
	C70.205658,247.421402 69.998062,252.131775 69.058884,256.619446 
	C67.243004,265.296356 61.172333,270.900482 53.799599,275.282806 
	C46.292892,271.627106 38.232452,270.725769 30.126656,273.639648 
	C27.149458,274.709839 25.802189,274.373047 24.042402,271.838776 
	C22.869888,270.150269 20.555357,269.254761 18.306160,267.669983 
	C13.559865,263.521027 10.496778,259.114197 11.000076,253.000610 
	C10.999971,252.250458 10.999866,251.500305 10.999900,250.375076 
z"/>
<path fill="#2E2E2E" opacity="1.000000" stroke="none" 
	d="
M56.544556,141.263855 
	C55.810596,139.635681 54.448788,138.011398 54.438629,136.378723 
	C54.321503,117.548409 54.409206,98.716820 54.588852,79.435577 
	C60.954594,79.970573 62.919674,82.176964 63.037266,87.426308 
	C63.236221,96.308044 63.895721,105.181923 63.981503,114.062782 
	C64.032089,119.300102 63.166359,124.541054 63.068607,129.787003 
	C63.010536,132.903732 63.643635,136.033325 63.878090,139.626022 
	C63.790203,140.094910 63.774727,140.373932 63.774727,140.373932 
	C63.774727,140.373932 63.999844,140.000000 63.999844,140.000000 
	C66.893158,139.680847 68.386215,140.800858 67.984848,144.257721 
	C65.291405,144.712006 62.593327,144.781281 59.360912,144.420578 
	C58.065899,143.081680 57.305225,142.172775 56.544556,141.263855 
z"/>
<path fill="#333333" opacity="1.000000" stroke="none" 
	d="
M18.572205,77.999771 
	C10.690029,82.875992 13.572784,90.432373 14.346224,97.477158 
	C14.489830,98.785179 15.173570,100.222305 14.830186,101.366386 
	C11.202186,113.454224 13.432407,125.815079 13.091166,138.034576 
	C12.698763,152.086090 12.910132,166.157806 13.043784,180.219009 
	C13.097912,185.913620 13.872647,191.603165 13.883007,197.295822 
	C13.890776,201.564072 12.959292,205.829285 12.882848,210.103653 
	C12.789828,215.304810 13.185722,220.513412 13.309976,225.720230 
	C13.378034,228.572220 13.322142,231.427139 13.322142,234.280746 
	C12.806037,234.285934 12.289932,234.291138 11.773828,234.296341 
	C11.096134,231.606293 10.418441,228.916245 9.371076,226.113403 
	C9.001122,220.312195 9.000841,214.623764 9.366858,208.359100 
	C10.155462,205.522110 10.577769,203.261368 11.000076,201.000610 
	C10.999996,198.958588 10.999917,196.916565 10.940648,194.127930 
	C10.254775,192.921082 9.628092,192.460846 9.001406,192.000610 
	C9.001163,189.958588 9.000922,187.916565 9.380995,185.316452 
	C10.041466,179.513016 10.350680,174.268661 10.531063,169.019897 
	C10.542125,168.698029 9.534811,168.341187 9.001326,168.000610 
	C9.001089,166.611374 9.000853,165.222153 9.361659,163.320526 
	C10.481214,160.560043 11.906940,158.306305 11.888073,156.064743 
	C11.779732,143.192108 11.377991,130.320587 10.911452,117.454643 
	C10.868920,116.281731 9.665656,115.150902 9.001404,114.000534 
	C9.001145,112.611359 9.000888,111.222183 9.348441,109.329010 
	C10.541359,105.618195 11.933715,102.441681 12.113321,99.198006 
	C12.448052,93.152832 12.077255,87.068588 12.000097,81.000610 
	C12.252798,76.323982 15.884630,78.566536 18.572205,77.999771 
z"/>
<path fill="#323232" opacity="1.000000" stroke="none" 
	d="
M9.001058,114.469131 
	C9.665656,115.150902 10.868920,116.281731 10.911452,117.454643 
	C11.377991,130.320587 11.779732,143.192108 11.888073,156.064743 
	C11.906940,158.306305 10.481214,160.560043 9.362003,162.903778 
	C9.002416,156.438660 9.004599,149.877945 9.004383,143.317215 
	C9.004072,133.857376 9.002021,124.397552 9.001058,114.469131 
z"/>
<path fill="#323232" opacity="1.000000" stroke="none" 
	d="
M11.639215,81.096085 
	C12.077255,87.068588 12.448052,93.152832 12.113321,99.198006 
	C11.933715,102.441681 10.541359,105.618195 9.348787,108.912262 
	C9.001295,102.138535 8.806266,95.269020 9.105727,88.421143 
	C9.212293,85.984276 10.519304,83.599899 11.639215,81.096085 
z"/>
<path fill="#323232" opacity="1.000000" stroke="none" 
	d="
M10.637586,253.106384 
	C10.496778,259.114197 13.559865,263.521027 17.929943,267.667236 
	C16.503698,267.668396 14.626628,267.797241 13.578824,266.927277 
	C9.310375,263.383362 8.081414,257.634064 10.637586,253.106384 
z"/>
<path fill="#323232" opacity="1.000000" stroke="none" 
	d="
M9.001005,168.468155 
	C9.534811,168.341187 10.542125,168.698029 10.531063,169.019897 
	C10.350680,174.268661 10.041466,179.513016 9.381366,184.878876 
	C9.001178,179.644821 9.000932,174.290268 9.001005,168.468155 
z"/>
<path fill="#323232" opacity="1.000000" stroke="none" 
	d="
M10.633939,201.108734 
	C10.577769,203.261368 10.155462,205.522110 9.367199,207.891129 
	C9.423429,205.738541 9.845614,203.477692 10.633939,201.108734 
z"/>
<path fill="#333333" opacity="1.000000" stroke="none" 
	d="
M9.010340,237.359589 
	C9.998928,238.078186 10.996468,239.156937 11.996185,240.619049 
	C11.005340,239.908188 10.012316,238.813950 9.010340,237.359589 
z"/>
<path fill="#323232" opacity="1.000000" stroke="none" 
	d="
M9.060357,192.309753 
	C9.628092,192.460846 10.254775,192.921082 10.940758,193.690353 
	C10.373140,193.539230 9.746223,193.079086 9.060357,192.309753 
z"/>
<path fill="#2E2E2E" opacity="1.000000" stroke="none" 
	d="
M54.615631,233.997650 
	C54.522121,229.632004 54.428608,225.266373 54.788284,220.360626 
	C56.491856,217.879303 58.387760,216.079834 58.851929,213.965973 
	C59.696053,210.121750 58.911461,205.790359 60.284855,202.232986 
	C61.378708,199.399689 64.306374,196.128036 67.072105,195.340118 
	C71.897903,193.965317 77.224960,194.055161 82.342804,194.046402 
	C128.229645,193.967972 174.116684,194.002045 220.003662,194.003052 
	C216.053238,194.996490 212.109665,196.818512 208.151321,196.851166 
	C178.697708,197.094223 149.240509,196.860779 119.785851,197.028305 
	C102.585709,197.126114 85.379333,197.494370 68.200874,198.285919 
	C66.083809,198.383469 62.729393,201.604202 62.340553,203.801056 
	C60.991081,211.425186 60.352581,219.226868 60.146980,226.979675 
	C60.045662,230.800201 61.278942,234.717728 62.297985,238.485992 
	C63.050365,241.268173 63.508362,243.464157 59.226902,243.626801 
	C58.453453,241.487381 58.577118,239.545395 57.890827,237.952347 
	C57.240929,236.443771 55.741459,235.301193 54.615631,233.997650 
z"/>
<path fill="#2D2D2D" opacity="1.000000" stroke="none" 
	d="
M220.447281,194.002731 
	C174.116684,194.002045 128.229645,193.967972 82.342804,194.046402 
	C77.224960,194.055161 71.897903,193.965317 67.072105,195.340118 
	C64.306374,196.128036 61.378708,199.399689 60.284855,202.232986 
	C58.911461,205.790359 59.696053,210.121750 58.851929,213.965973 
	C58.387760,216.079834 56.491856,217.879303 54.919342,219.912766 
	C54.509987,214.637787 54.422760,209.270569 54.798538,203.420105 
	C56.167801,201.858276 57.012337,200.719513 57.992828,199.713242 
	C60.198536,197.449554 62.159786,193.918732 64.782425,193.305069 
	C70.194550,192.038681 75.973717,192.050461 81.602425,192.044540 
	C147.577240,191.975143 213.552170,191.999130 279.527069,192.005463 
	C281.191040,192.005630 282.871185,191.951706 284.516235,192.150726 
	C293.119659,193.191605 300.610291,191.389282 306.185760,184.222580 
	C306.914764,184.631042 307.456757,184.815826 307.998779,185.000610 
	C307.999176,185.750458 307.999573,186.500305 307.661041,187.698669 
	C304.739136,189.459976 302.231750,190.957703 299.558746,192.050171 
	C292.174316,195.068283 284.570557,194.559708 276.712585,194.214798 
	C260.502014,193.503281 244.238358,194.002151 227.996552,194.003052 
	C225.628006,194.002838 223.259445,194.002625 220.447281,194.002731 
z"/>
<path fill="#292929" opacity="1.000000" stroke="none" 
	d="
M54.485527,234.439774 
	C55.741459,235.301193 57.240929,236.443771 57.890827,237.952347 
	C58.577118,239.545395 58.453453,241.487381 58.846237,243.640900 
	C57.979076,247.796402 55.859051,251.130966 56.741188,255.611420 
	C57.397125,258.942963 55.125942,261.871368 50.876133,262.031921 
	C44.294708,262.280609 37.721687,262.831024 31.139425,262.957245 
	C23.769043,263.098572 19.048967,256.814667 20.970036,249.116547 
	C22.909538,248.856339 24.557484,248.862045 26.605198,249.385910 
	C26.309021,254.641678 28.600084,256.659271 33.108727,257.607788 
	C44.484299,260.000977 49.525948,257.759552 50.995476,249.094101 
	C52.110527,248.325378 53.225578,247.556656 54.623131,246.378571 
	C54.782639,245.637756 54.659637,245.306259 54.536636,244.974777 
	C54.476234,241.610489 54.415829,238.246185 54.485527,234.439774 
z"/>
<path fill="#2E2E2E" opacity="1.000000" stroke="none" 
	d="
M228.118378,194.383057 
	C244.238358,194.002151 260.502014,193.503281 276.712585,194.214798 
	C284.570557,194.559708 292.174316,195.068283 299.558746,192.050171 
	C302.231750,190.957703 304.739136,189.459976 307.661041,188.073578 
	C307.706818,193.807663 302.473633,195.290939 298.861786,195.551056 
	C286.174377,196.464813 273.403320,196.309265 260.663147,196.366486 
	C251.698380,196.406754 242.730453,196.197357 233.768127,195.948029 
	C231.915924,195.896515 230.082352,195.175491 228.118378,194.383057 
z"/>
<path fill="#2D2D2D" opacity="1.000000" stroke="none" 
	d="
M301.008575,179.852036 
	C301.518860,178.425964 302.422180,177.012894 302.469818,175.571518 
	C302.653473,170.019760 302.563354,164.458969 303.097961,158.510971 
	C304.413849,159.869553 305.207794,161.618378 306.000153,163.367935 
	C307.001221,165.578293 308.000946,167.789276 309.001221,170.000000 
	C309.001251,170.444305 309.001312,170.888626 308.758026,171.917175 
	C308.344330,175.002151 308.173950,177.502869 308.003601,180.003586 
	C308.003601,180.003586 308.003052,180.502106 307.711121,180.785339 
	C306.945709,181.379715 306.472229,181.690857 305.654053,181.955994 
	C304.194305,181.614044 303.079315,181.318069 301.720764,181.018646 
	C301.477173,181.015198 300.989990,181.010132 300.990540,180.720551 
	C300.996887,180.237976 301.002716,180.045013 301.008575,179.852036 
z"/>
<path fill="#2E2E2E" opacity="1.000000" stroke="none" 
	d="
M309.261658,169.691986 
	C308.000946,167.789276 307.001221,165.578293 306.000153,163.367935 
	C305.207794,161.618378 304.413849,159.869553 303.230225,158.058167 
	C302.751434,156.859955 302.662994,155.723984 302.703674,154.269440 
	C309.495819,157.346634 310.902771,160.592712 309.261658,169.691986 
z"/>
<path fill="#2E2E2E" opacity="1.000000" stroke="none" 
	d="
M308.364868,179.939713 
	C308.173950,177.502869 308.344330,175.002151 308.757996,172.250412 
	C311.034943,174.699097 312.652710,177.384293 308.364868,179.939713 
z"/>
<path fill="#2E2E2E" opacity="1.000000" stroke="none" 
	d="
M305.998779,182.001984 
	C306.472229,181.690857 306.945709,181.379715 307.710205,181.034592 
	C308.000732,182.067261 308.000244,183.133911 307.999268,184.600586 
	C307.456757,184.815826 306.914764,184.631042 306.185760,183.889755 
	C305.998779,182.889496 305.998779,182.445740 305.998779,182.001984 
z"/>
<path fill="#2D2D2D" opacity="1.000000" stroke="none" 
	d="
M162.541565,90.020706 
	C162.853882,96.286125 162.805069,102.568771 162.971573,109.497040 
	C165.075806,115.106857 167.962692,118.818176 173.863647,118.997093 
	C183.649368,119.293808 193.430969,119.857559 203.217834,119.955551 
	C219.425995,120.117851 235.637558,120.077759 251.846497,119.959953 
	C258.094330,119.914543 264.336304,119.309120 270.585724,119.164444 
	C278.833618,118.973495 287.103790,119.283913 295.330292,118.799324 
	C300.433319,118.498734 302.872955,114.037994 300.996216,109.785965 
	C301.537445,108.205994 302.502625,106.637787 302.546814,105.044014 
	C302.742157,98.002815 302.672455,90.954254 302.818756,83.452835 
	C304.307495,84.090919 306.490417,84.943542 306.898315,86.321579 
	C308.350830,91.228821 309.300171,96.296700 310.208893,101.345360 
	C310.448639,102.677345 309.933868,104.175774 309.629517,105.568039 
	C309.146942,107.775848 308.120880,109.949471 308.073822,112.153542 
	C307.843719,122.936760 305.902008,125.142227 294.997223,125.704552 
	C289.580994,125.983833 284.142914,126.078384 278.721588,125.955330 
	C272.592987,125.816238 266.469147,125.017662 260.348358,125.072815 
	C245.458267,125.206993 230.572342,125.748428 215.682419,125.971428 
	C205.828079,126.119019 195.944855,126.425621 186.121857,125.851707 
	C179.413528,125.459763 172.709808,123.986412 166.154266,122.382545 
	C162.592712,121.511177 159.231186,119.520363 160.551865,114.530037 
	C160.782272,113.659370 160.075790,112.385109 159.503418,111.487740 
	C157.975113,109.091736 156.328659,106.898216 158.684753,103.971031 
	C159.198502,103.332764 158.808502,101.699409 158.439774,100.665154 
	C156.895920,96.334785 158.146790,92.609093 162.541565,90.020706 
z"/>
<path fill="#2E2E2E" opacity="1.000000" stroke="none" 
	d="
M302.167175,235.004501 
	C302.311768,230.268448 302.456329,225.532394 302.730835,220.395966 
	C305.838806,219.850342 307.018799,221.327896 307.020264,224.237457 
	C307.023285,230.153412 306.837616,236.154037 311.364960,240.922729 
	C311.668488,241.242401 311.942413,242.058792 311.764618,242.297470 
	C308.415588,246.794022 310.765839,252.306076 309.259277,256.885284 
	C307.146667,263.306305 300.749359,264.812775 294.918457,264.865631 
	C265.290558,265.134338 235.658890,264.988037 206.028534,264.987457 
	C197.670959,264.987305 189.298630,265.286255 180.961533,264.873199 
	C176.217041,264.638153 171.314606,263.824615 166.882538,262.189484 
	C163.035522,260.770172 160.340775,257.786896 159.763474,252.885056 
	C159.165039,247.803802 155.982452,243.272980 156.845261,237.638657 
	C157.445801,233.717072 158.987076,231.019043 162.566986,229.020050 
	C163.017899,234.071091 163.029388,239.143356 163.237991,244.207474 
	C163.300308,245.720520 163.914032,247.210861 164.638550,249.275604 
	C164.999954,250.893021 164.997940,251.946426 164.760864,253.234497 
	C165.260590,254.922333 165.629532,257.138428 166.793518,257.696625 
	C171.834366,260.114014 176.814835,262.509186 182.863297,262.103546 
	C193.876419,261.364990 204.937897,261.019073 215.977020,261.062317 
	C241.623123,261.162781 267.267914,261.593964 292.913300,261.887909 
	C301.364044,261.984772 303.225159,260.587860 304.747803,253.234665 
	C305.372620,250.217422 306.400116,247.267441 306.821899,244.228226 
	C307.378296,240.218735 306.843140,236.496628 302.167175,235.004501 
z"/>
<path fill="#212121" opacity="1.000000" stroke="none" 
	d="
M54.640217,188.974091 
	C54.640217,186.019394 54.640217,183.064697 54.640217,179.665497 
	C135.217072,179.665497 215.655655,179.665497 296.498108,180.151276 
	C294.909943,182.110168 293.061340,184.515778 290.893951,184.849243 
	C287.157318,185.424088 282.479584,183.279617 279.516785,184.818192 
	C272.093140,188.673279 264.482788,186.290329 257.119446,186.696518 
	C243.737686,187.434692 230.255203,186.102737 216.814133,186.083893 
	C205.109879,186.067490 193.405655,186.876907 181.699677,186.928818 
	C173.584671,186.964783 165.468033,186.124664 157.349564,186.072327 
	C151.564636,186.035004 145.772903,186.964920 139.988770,186.916428 
	C129.779419,186.830826 119.540710,185.665771 109.374649,186.169861 
	C97.034447,186.781799 84.706787,183.261581 72.324371,186.832336 
	C66.692146,188.456497 60.550686,188.314789 54.640217,188.974091 
z"/>
<path fill="#262626" opacity="1.000000" stroke="none" 
	d="
M54.497780,189.394135 
	C60.550686,188.314789 66.692146,188.456497 72.324371,186.832336 
	C84.706787,183.261581 97.034447,186.781799 109.374649,186.169861 
	C119.540710,185.665771 129.779419,186.830826 139.988770,186.916428 
	C145.772903,186.964920 151.564636,186.035004 157.349564,186.072327 
	C165.468033,186.124664 173.584671,186.964783 181.699677,186.928818 
	C193.405655,186.876907 205.109879,186.067490 216.814133,186.083893 
	C230.255203,186.102737 243.737686,187.434692 257.119446,186.696518 
	C264.482788,186.290329 272.093140,188.673279 279.516785,184.818192 
	C282.479584,183.279617 287.157318,185.424088 290.893951,184.849243 
	C293.061340,184.515778 294.909943,182.110168 296.952545,180.276154 
	C298.080078,179.806091 299.157043,179.696884 300.621307,179.719864 
	C301.002716,180.045013 300.996887,180.237976 300.786255,180.843170 
	C300.326324,181.456650 300.131714,181.705261 299.779907,182.236206 
	C300.445374,186.790878 298.655396,189.058884 294.288513,189.397079 
	C292.144653,189.563110 290.006256,189.971146 287.865021,189.973648 
	C255.780075,190.011292 223.694580,190.105469 191.610306,189.954529 
	C175.649445,189.879440 159.691879,189.171585 143.730743,189.068115 
	C135.604767,189.015411 127.476082,189.885483 119.345367,189.954224 
	C101.891869,190.101822 84.432968,190.190338 66.983444,189.888763 
	C61.501617,189.794022 57.270573,190.916214 54.637592,195.969910 
	C54.543510,193.918015 54.449425,191.866104 54.497780,189.394135 
z"/>
<path fill="#292929" opacity="1.000000" stroke="none" 
	d="
M54.500069,196.393188 
	C57.270573,190.916214 61.501617,189.794022 66.983444,189.888763 
	C84.432968,190.190338 101.891869,190.101822 119.345367,189.954224 
	C127.476082,189.885483 135.604767,189.015411 143.730743,189.068115 
	C159.691879,189.171585 175.649445,189.879440 191.610306,189.954529 
	C223.694580,190.105469 255.780075,190.011292 287.865021,189.973648 
	C290.006256,189.971146 292.144653,189.563110 294.288513,189.397079 
	C298.655396,189.058884 300.445374,186.790878 300.066833,182.203827 
	C301.035767,181.631668 301.500061,181.326889 301.964325,181.022095 
	C303.079315,181.318069 304.194305,181.614044 305.654053,181.955994 
	C305.998779,182.445740 305.998779,182.889496 305.998779,183.666077 
	C300.610291,191.389282 293.119659,193.191605 284.516235,192.150726 
	C282.871185,191.951706 281.191040,192.005630 279.527069,192.005463 
	C213.552170,191.999130 147.577240,191.975143 81.602425,192.044540 
	C75.973717,192.050461 70.194550,192.038681 64.782425,193.305069 
	C62.159786,193.918732 60.198536,197.449554 57.992828,199.713242 
	C57.012337,200.719513 56.167801,201.858276 54.932930,202.970779 
	C54.523720,200.941925 54.443130,198.879196 54.500069,196.393188 
z"/>
<path fill="#212121" opacity="1.000000" stroke="none" 
	d="
M50.536163,248.996002 
	C49.525948,257.759552 44.484299,260.000977 33.108727,257.607788 
	C28.600084,256.659271 26.309021,254.641678 27.004459,249.491562 
	C34.694916,249.018661 42.385883,248.958298 50.536163,248.996002 
z"/>
<path fill="#363636" opacity="1.000000" stroke="none" 
	d="
M56.145119,141.423309 
	C57.305225,142.172775 58.065899,143.081680 58.921181,144.322113 
	C57.554863,144.437302 56.093941,144.220993 54.633018,144.004700 
	C55.003902,143.197388 55.374790,142.390076 56.145119,141.423309 
z"/>
<path fill="#323232" opacity="1.000000" stroke="none" 
	d="
M54.436905,245.240021 
	C54.659637,245.306259 54.782639,245.637756 54.731293,245.998474 
	C54.483696,245.853561 54.410439,245.679428 54.436905,245.240021 
z"/>
<path fill="#212121" opacity="1.000000" stroke="none" 
	d="
M172.001968,249.075012 
	C175.741867,249.305817 179.484589,249.755722 183.220871,249.707245 
	C187.133972,249.656479 191.040314,248.856949 194.950531,248.849243 
	C229.660873,248.780838 264.371399,248.815598 299.537720,249.168274 
	C299.993591,249.516617 299.995850,250.003906 299.942688,250.349976 
	C297.354523,252.315857 294.836792,255.303558 292.281677,255.335892 
	C274.249023,255.564041 256.207458,255.260895 238.171219,254.973038 
	C226.064499,254.779816 213.963257,254.257751 201.856812,254.027817 
	C194.115814,253.880783 186.369110,254.057663 178.626343,253.968826 
	C175.350662,253.931229 172.099335,253.556198 172.001968,249.075012 
z"/>
<path fill="#262626" opacity="1.000000" stroke="none" 
	d="
M171.575012,248.966278 
	C172.099335,253.556198 175.350662,253.931229 178.626343,253.968826 
	C186.369110,254.057663 194.115814,253.880783 201.856812,254.027817 
	C213.963257,254.257751 226.064499,254.779816 238.171219,254.973038 
	C256.207458,255.260895 274.249023,255.564041 292.281677,255.335892 
	C294.836792,255.303558 297.354523,252.315857 300.190735,250.613693 
	C301.094727,255.696838 298.117279,259.019287 292.294678,258.945984 
	C279.580139,258.785858 266.870728,258.191315 254.156235,258.057190 
	C238.672684,257.893860 223.185913,257.987518 207.700912,258.055725 
	C205.077530,258.067291 202.453217,258.737732 199.834320,258.704956 
	C194.868286,258.642761 189.841446,257.684265 184.956894,258.201996 
	C177.485580,258.993896 171.198654,256.444397 164.995941,252.999847 
	C164.997940,251.946426 164.999954,250.893021 165.002380,249.444580 
	C167.051239,248.985565 169.099640,248.921570 171.575012,248.966278 
z"/>
<path fill="#292929" opacity="1.000000" stroke="none" 
	d="
M164.760864,253.234497 
	C171.198654,256.444397 177.485580,258.993896 184.956894,258.201996 
	C189.841446,257.684265 194.868286,258.642761 199.834320,258.704956 
	C202.453217,258.737732 205.077530,258.067291 207.700912,258.055725 
	C223.185913,257.987518 238.672684,257.893860 254.156235,258.057190 
	C266.870728,258.191315 279.580139,258.785858 292.294678,258.945984 
	C298.117279,259.019287 301.094727,255.696838 300.243866,250.267639 
	C299.995850,250.003906 299.993591,249.516617 299.996094,249.272995 
	C300.669556,248.062317 301.845367,247.132187 301.919281,246.121475 
	C302.166626,242.737595 302.020142,239.324921 302.095825,235.463882 
	C306.843140,236.496628 307.378296,240.218735 306.821899,244.228226 
	C306.400116,247.267441 305.372620,250.217422 304.747803,253.234665 
	C303.225159,260.587860 301.364044,261.984772 292.913300,261.887909 
	C267.267914,261.593964 241.623123,261.162781 215.977020,261.062317 
	C204.937897,261.019073 193.876419,261.364990 182.863297,262.103546 
	C176.814835,262.509186 171.834366,260.114014 166.793518,257.696625 
	C165.629532,257.138428 165.260590,254.922333 164.760864,253.234497 
z"/>
<path fill="#232323" opacity="1.000000" stroke="none" 
	d="
M300.550049,109.635399 
	C302.872955,114.037994 300.433319,118.498734 295.330292,118.799324 
	C287.103790,119.283913 278.833618,118.973495 270.585724,119.164444 
	C264.336304,119.309120 258.094330,119.914543 251.846497,119.959953 
	C235.637558,120.077759 219.425995,120.117851 203.217834,119.955551 
	C193.430969,119.857559 183.649368,119.293808 173.863647,118.997093 
	C167.962692,118.818176 165.075806,115.106857 163.173218,109.762009 
	C207.142410,109.389160 251.125259,109.396111 295.108124,109.408127 
	C296.773376,109.408585 298.438629,109.458153 300.550049,109.635399 
z"/>
<path fill="#363636" opacity="1.000000" stroke="none" 
	d="
M63.999924,140.000000 
	C63.999844,140.000000 63.774727,140.373932 63.774727,140.373932 
	C63.774727,140.373932 63.790203,140.094910 63.895256,140.047455 
	C64.000305,140.000000 64.000000,140.000000 63.999924,140.000000 
z"/>
<path fill="#212121" opacity="1.000000" stroke="none" 
	d="
M301.720764,181.018646 
	C301.500061,181.326889 301.035767,181.631668 300.284546,181.968842 
	C300.131714,181.705261 300.326324,181.456650 300.785706,181.132751 
	C300.989990,181.010132 301.477173,181.015198 301.720764,181.018646 
z"/>
</svg>