<svg width="1770" height="240" viewBox="0 0 1770 240" fill="none" xmlns="http://www.w3.org/2000/svg">
<rect width="1770" height="240" fill="white"/>
<path d="M8.47957 4.81728C23.2695 4.97805 38.0605 4.99131 52.8504 4.85739C52.8829 10.0707 52.6893 15.3132 52.939 20.5198C54.2599 25.6264 52.9748 37.0558 53.3609 43.0603L53.592 42.1898L53.8515 42.284C54.3594 45.504 54.5046 74.656 53.6858 76.6075C53.5787 74.4021 54.0083 62.8067 53.3861 62.0287C52.9403 65.7327 52.8567 86.6393 53.6778 89.8574C53.6152 88.011 53.3686 85.977 53.6026 84.1498C53.8515 87.5946 54.8951 93.156 53.6855 96.3559C53.656 96.4338 53.6304 96.5136 53.6023 96.5922C53.4554 97.0022 53.3901 97.1272 53.0609 97.4285L53.0656 97.5286C53.641 97.9718 350.902 97.6864 381.77 97.6689C382.049 112.994 381.8 128.373 381.817 143.704L220.053 143.726C164.306 143.751 108.505 144.273 52.7639 143.694C53.1279 153.962 52.7682 164.39 52.7573 174.675L52.7232 235.543C38.0333 235.754 23.305 235.53 8.61025 235.541C8.25651 214.119 8.66348 192.614 8.63272 171.183L8.47957 4.81728Z" fill="#343434"/>
<path d="M197.139 4.92567C218.263 4.32203 239.531 4.8312 260.673 4.84347L381.837 4.867C382.297 10.1784 381.946 15.7869 381.93 21.1268L381.873 50.8648L197.055 50.8287C197.421 35.5478 196.377 20.1847 197.139 4.92567Z" fill="#343434"/>
<path d="M197.088 189.809C218.369 189.423 239.716 189.758 261.003 189.759L381.853 189.803C381.697 205.001 381.585 220.257 381.847 235.454L197.185 235.48L197.088 189.809Z" fill="#343434"/>
<path d="M491.129 103.039V127.648H417.496V103.039H491.129ZM427.555 45.8125V188H395.719V45.8125H427.555ZM513.102 45.8125V188H481.363V45.8125H513.102ZM591.129 162.805V117.492C591.129 114.302 590.641 111.568 589.664 109.289C588.688 107.01 587.158 105.22 585.074 103.918C582.991 102.616 580.289 101.965 576.969 101.965C574.169 101.965 571.728 102.453 569.645 103.43C567.626 104.406 566.064 105.806 564.957 107.629C563.915 109.452 563.395 111.698 563.395 114.367H532.926C532.926 109.615 534 105.188 536.148 101.086C538.297 96.9844 541.357 93.3711 545.328 90.2461C549.365 87.1211 554.182 84.7122 559.781 83.0195C565.38 81.2617 571.663 80.3828 578.629 80.3828C586.897 80.3828 594.254 81.7826 600.699 84.582C607.21 87.3164 612.353 91.4505 616.129 96.9844C619.905 102.453 621.793 109.354 621.793 117.688V161.926C621.793 168.306 622.151 173.319 622.867 176.965C623.648 180.546 624.755 183.671 626.188 186.34V188H595.426C593.993 184.94 592.919 181.164 592.203 176.672C591.487 172.115 591.129 167.492 591.129 162.805ZM594.938 123.547L595.133 140.344H579.996C576.611 140.344 573.681 140.767 571.207 141.613C568.798 142.46 566.845 143.632 565.348 145.129C563.85 146.561 562.743 148.254 562.027 150.207C561.376 152.095 561.051 154.178 561.051 156.457C561.051 158.605 561.572 160.559 562.613 162.316C563.655 164.009 565.087 165.344 566.91 166.32C568.733 167.297 570.849 167.785 573.258 167.785C577.229 167.785 580.615 167.004 583.414 165.441C586.279 163.879 588.492 161.991 590.055 159.777C591.617 157.499 592.398 155.383 592.398 153.43L599.723 166.125C598.551 168.729 597.118 171.431 595.426 174.23C593.733 176.965 591.585 179.536 588.98 181.945C586.376 184.289 583.219 186.21 579.508 187.707C575.862 189.204 571.467 189.953 566.324 189.953C559.684 189.953 553.661 188.618 548.258 185.949C542.854 183.215 538.525 179.471 535.27 174.719C532.079 169.966 530.484 164.497 530.484 158.312C530.484 152.779 531.493 147.863 533.512 143.566C535.53 139.27 538.557 135.624 542.594 132.629C546.695 129.634 551.839 127.388 558.023 125.891C564.208 124.328 571.435 123.547 579.703 123.547H594.938ZM672.379 104.504V188H641.91V82.3359H670.523L672.379 104.504ZM668.473 131.457L660.758 131.652C660.758 124.23 661.637 117.427 663.395 111.242C665.217 104.992 667.854 99.556 671.305 94.9336C674.755 90.3112 679.02 86.7305 684.098 84.1914C689.241 81.6523 695.165 80.3828 701.871 80.3828C706.559 80.3828 710.823 81.099 714.664 82.5312C718.505 83.8984 721.793 86.0794 724.527 89.0742C727.327 92.0039 729.475 95.8451 730.973 100.598C732.47 105.285 733.219 110.917 733.219 117.492V188H702.75V121.203C702.75 116.516 702.164 112.967 700.992 110.559C699.885 108.085 698.258 106.392 696.109 105.48C693.961 104.569 691.389 104.113 688.395 104.113C685.139 104.113 682.242 104.829 679.703 106.262C677.229 107.629 675.146 109.549 673.453 112.023C671.76 114.497 670.491 117.395 669.645 120.715C668.863 124.035 668.473 127.616 668.473 131.457ZM730.094 129.895L720.426 130.676C720.426 123.514 721.272 116.874 722.965 110.754C724.658 104.634 727.197 99.3281 730.582 94.8359C733.967 90.2786 738.167 86.7305 743.18 84.1914C748.258 81.6523 754.15 80.3828 760.855 80.3828C765.803 80.3828 770.296 81.099 774.332 82.5312C778.434 83.9635 781.949 86.2747 784.879 89.4648C787.874 92.6549 790.185 96.8542 791.812 102.062C793.44 107.206 794.254 113.521 794.254 121.008V188H763.59V121.008C763.59 116.385 763.004 112.87 761.832 110.461C760.725 108.052 759.098 106.392 756.949 105.48C754.866 104.569 752.359 104.113 749.43 104.113C746.174 104.113 743.342 104.797 740.934 106.164C738.525 107.466 736.507 109.289 734.879 111.633C733.251 113.911 732.047 116.613 731.266 119.738C730.484 122.863 730.094 126.249 730.094 129.895ZM876.188 164.367V38H906.852V188H879.312L876.188 164.367ZM810.367 136.438V134.387C810.367 126.379 811.246 119.087 813.004 112.512C814.827 105.871 817.464 100.174 820.914 95.4219C824.43 90.6042 828.759 86.8932 833.902 84.2891C839.046 81.6849 844.938 80.3828 851.578 80.3828C857.698 80.3828 863.036 81.75 867.594 84.4844C872.151 87.1536 876.025 90.9297 879.215 95.8125C882.47 100.63 885.107 106.327 887.125 112.902C889.143 119.413 890.673 126.477 891.715 134.094V137.609C890.738 144.901 889.208 151.704 887.125 158.02C885.107 164.335 882.47 169.901 879.215 174.719C876.025 179.471 872.118 183.215 867.496 185.949C862.939 188.618 857.568 189.953 851.383 189.953C844.742 189.953 838.85 188.618 833.707 185.949C828.629 183.28 824.365 179.536 820.914 174.719C817.464 169.901 814.827 164.237 813.004 157.727C811.246 151.216 810.367 144.12 810.367 136.438ZM840.836 134.387V136.438C840.836 140.604 841.129 144.478 841.715 148.059C842.366 151.639 843.408 154.797 844.84 157.531C846.272 160.266 848.16 162.414 850.504 163.977C852.848 165.474 855.712 166.223 859.098 166.223C863.655 166.223 867.398 165.181 870.328 163.098C873.258 160.949 875.471 157.987 876.969 154.211C878.466 150.435 879.247 146.04 879.312 141.027V130.773C879.312 126.607 878.889 122.863 878.043 119.543C877.197 116.223 875.927 113.423 874.234 111.145C872.607 108.866 870.556 107.141 868.082 105.969C865.608 104.732 862.678 104.113 859.293 104.113C855.973 104.113 853.141 104.895 850.797 106.457C848.453 107.954 846.533 110.07 845.035 112.805C843.603 115.539 842.529 118.762 841.812 122.473C841.161 126.118 840.836 130.09 840.836 134.387ZM959.293 82.3359V188H928.727V82.3359H959.293ZM926.871 54.9922C926.871 50.5651 928.434 46.9518 931.559 44.1523C934.684 41.2878 938.785 39.8555 943.863 39.8555C948.941 39.8555 953.043 41.2878 956.168 44.1523C959.358 46.9518 960.953 50.5651 960.953 54.9922C960.953 59.3542 959.358 62.9674 956.168 65.832C953.043 68.6315 948.941 70.0312 943.863 70.0312C938.785 70.0312 934.684 68.6315 931.559 65.832C928.434 62.9674 926.871 59.3542 926.871 54.9922ZM1129.31 163.391V188H1053.63V163.391H1129.31ZM1064.47 45.8125V188H1032.63V45.8125H1064.47ZM1119.55 103.039V126.867H1053.63V103.039H1119.55ZM1129.41 45.8125V70.5195H1053.63V45.8125H1129.41ZM1173.94 106.945V188H1143.47V82.3359H1172.09L1173.94 106.945ZM1205.48 81.5547L1205 109.973C1203.69 109.777 1202 109.615 1199.92 109.484C1197.83 109.289 1196.04 109.191 1194.55 109.191C1190.64 109.191 1187.26 109.68 1184.39 110.656C1181.59 111.568 1179.25 112.935 1177.36 114.758C1175.54 116.581 1174.17 118.859 1173.26 121.594C1172.35 124.263 1171.89 127.355 1171.89 130.871L1166.13 128.039C1166.13 121.073 1166.81 114.693 1168.18 108.898C1169.55 103.104 1171.53 98.0911 1174.14 93.8594C1176.74 89.5625 1179.93 86.2422 1183.71 83.8984C1187.48 81.5547 1191.78 80.3828 1196.6 80.3828C1198.16 80.3828 1199.76 80.4805 1201.38 80.6758C1203.01 80.8711 1204.38 81.1641 1205.48 81.5547ZM1277.55 164.367V38H1308.22V188H1280.68L1277.55 164.367ZM1211.73 136.438V134.387C1211.73 126.379 1212.61 119.087 1214.37 112.512C1216.19 105.871 1218.83 100.174 1222.28 95.4219C1225.8 90.6042 1230.13 86.8932 1235.27 84.2891C1240.41 81.6849 1246.3 80.3828 1252.95 80.3828C1259.07 80.3828 1264.4 81.75 1268.96 84.4844C1273.52 87.1536 1277.39 90.9297 1280.58 95.8125C1283.84 100.63 1286.47 106.327 1288.49 112.902C1290.51 119.413 1292.04 126.477 1293.08 134.094V137.609C1292.11 144.901 1290.58 151.704 1288.49 158.02C1286.47 164.335 1283.84 169.901 1280.58 174.719C1277.39 179.471 1273.49 183.215 1268.86 185.949C1264.31 188.618 1258.93 189.953 1252.75 189.953C1246.11 189.953 1240.22 188.618 1235.07 185.949C1230 183.28 1225.73 179.536 1222.28 174.719C1218.83 169.901 1216.19 164.237 1214.37 157.727C1212.61 151.216 1211.73 144.12 1211.73 136.438ZM1242.2 134.387V136.438C1242.2 140.604 1242.5 144.478 1243.08 148.059C1243.73 151.639 1244.77 154.797 1246.21 157.531C1247.64 160.266 1249.53 162.414 1251.87 163.977C1254.21 165.474 1257.08 166.223 1260.46 166.223C1265.02 166.223 1268.77 165.181 1271.7 163.098C1274.62 160.949 1276.84 157.987 1278.34 154.211C1279.83 150.435 1280.61 146.04 1280.68 141.027V130.773C1280.68 126.607 1280.26 122.863 1279.41 119.543C1278.56 116.223 1277.29 113.423 1275.6 111.145C1273.97 108.866 1271.92 107.141 1269.45 105.969C1266.98 104.732 1264.05 104.113 1260.66 104.113C1257.34 104.113 1254.51 104.895 1252.16 106.457C1249.82 107.954 1247.9 110.07 1246.4 112.805C1244.97 115.539 1243.9 118.762 1243.18 122.473C1242.53 126.118 1242.2 130.09 1242.2 134.387ZM1324.14 136.242V134.191C1324.14 126.444 1325.24 119.315 1327.46 112.805C1329.67 106.229 1332.93 100.533 1337.22 95.7148C1341.52 90.8971 1346.79 87.1536 1353.04 84.4844C1359.29 81.75 1366.45 80.3828 1374.53 80.3828C1382.73 80.3828 1389.96 81.75 1396.21 84.4844C1402.52 87.1536 1407.83 90.8971 1412.12 95.7148C1416.42 100.533 1419.68 106.229 1421.89 112.805C1424.1 119.315 1425.21 126.444 1425.21 134.191V136.242C1425.21 143.924 1424.1 151.053 1421.89 157.629C1419.68 164.139 1416.42 169.836 1412.12 174.719C1407.83 179.536 1402.55 183.28 1396.3 185.949C1390.05 188.618 1382.86 189.953 1374.72 189.953C1366.65 189.953 1359.46 188.618 1353.14 185.949C1346.83 183.28 1341.52 179.536 1337.22 174.719C1332.93 169.836 1329.67 164.139 1327.46 157.629C1325.24 151.053 1324.14 143.924 1324.14 136.242ZM1354.7 134.191V136.242C1354.7 140.409 1355.03 144.315 1355.68 147.961C1356.4 151.607 1357.54 154.797 1359.1 157.531C1360.66 160.266 1362.71 162.414 1365.25 163.977C1367.85 165.474 1371.01 166.223 1374.72 166.223C1378.43 166.223 1381.56 165.474 1384.1 163.977C1386.64 162.414 1388.69 160.266 1390.25 157.531C1391.81 154.797 1392.92 151.607 1393.57 147.961C1394.29 144.315 1394.64 140.409 1394.64 136.242V134.191C1394.64 130.09 1394.29 126.249 1393.57 122.668C1392.92 119.022 1391.81 115.799 1390.25 113C1388.69 110.201 1386.6 108.02 1384 106.457C1381.46 104.895 1378.3 104.113 1374.53 104.113C1370.88 104.113 1367.79 104.895 1365.25 106.457C1362.71 108.02 1360.66 110.201 1359.1 113C1357.54 115.799 1356.4 119.022 1355.68 122.668C1355.03 126.249 1354.7 130.09 1354.7 134.191ZM1507.83 82.3359H1535.56V184.191C1535.56 193.892 1533.35 202.128 1528.92 208.898C1524.56 215.669 1518.47 220.812 1510.66 224.328C1502.85 227.844 1493.7 229.602 1483.22 229.602C1478.66 229.602 1473.91 228.983 1468.96 227.746C1464.01 226.574 1459.36 224.784 1455 222.375C1450.63 220.031 1446.99 217.036 1444.06 213.391L1457.05 195.422C1460.04 198.807 1463.62 201.542 1467.79 203.625C1471.96 205.773 1476.71 206.848 1482.05 206.848C1486.93 206.848 1491.06 205.969 1494.45 204.211C1497.83 202.453 1500.41 199.882 1502.16 196.496C1503.99 193.111 1504.9 189.009 1504.9 184.191V107.043L1507.83 82.3359ZM1437.22 136.438V134.387C1437.22 126.379 1438.2 119.087 1440.15 112.512C1442.11 105.871 1444.94 100.174 1448.65 95.4219C1452.42 90.6042 1456.95 86.8932 1462.22 84.2891C1467.56 81.6849 1473.55 80.3828 1480.19 80.3828C1487.35 80.3828 1493.28 81.75 1497.96 84.4844C1502.65 87.1536 1506.46 90.9297 1509.39 95.8125C1512.32 100.63 1514.63 106.327 1516.32 112.902C1518.02 119.413 1519.38 126.477 1520.43 134.094V137.609C1519.38 144.901 1517.89 151.704 1515.93 158.02C1513.98 164.335 1511.44 169.901 1508.32 174.719C1505.19 179.471 1501.29 183.215 1496.6 185.949C1491.98 188.618 1486.44 189.953 1480 189.953C1473.42 189.953 1467.5 188.618 1462.22 185.949C1456.95 183.28 1452.42 179.536 1448.65 174.719C1444.94 169.901 1442.11 164.237 1440.15 157.727C1438.2 151.216 1437.22 144.12 1437.22 136.438ZM1467.69 134.387V136.438C1467.69 140.604 1468.08 144.478 1468.86 148.059C1469.71 151.639 1470.95 154.797 1472.57 157.531C1474.27 160.266 1476.35 162.414 1478.82 163.977C1481.36 165.474 1484.33 166.223 1487.71 166.223C1492.66 166.223 1496.66 165.181 1499.72 163.098C1502.85 160.949 1505.13 157.987 1506.56 154.211C1508.06 150.435 1508.84 146.04 1508.9 141.027V130.773C1508.9 126.607 1508.48 122.863 1507.63 119.543C1506.79 116.223 1505.52 113.423 1503.82 111.145C1502.2 108.866 1500.05 107.141 1497.38 105.969C1494.77 104.732 1491.62 104.113 1487.91 104.113C1484.59 104.113 1481.66 104.895 1479.12 106.457C1476.58 107.954 1474.46 110.07 1472.77 112.805C1471.08 115.539 1469.81 118.762 1468.96 122.473C1468.11 126.118 1467.69 130.09 1467.69 134.387ZM1499.04 38.4883H1520.33C1520.33 44.2174 1518.9 49.2956 1516.03 53.7227C1513.17 58.1497 1509.1 61.6003 1503.82 64.0742C1498.62 66.5482 1492.43 67.7852 1485.27 67.7852C1474.53 67.7852 1466 65.0833 1459.68 59.6797C1453.37 54.2109 1450.21 47.1471 1450.21 38.4883H1471.4C1471.4 41.8086 1472.44 44.7708 1474.53 47.375C1476.68 49.9141 1480.26 51.1836 1485.27 51.1836C1490.35 51.1836 1493.9 49.9141 1495.91 47.375C1498 44.7708 1499.04 41.8086 1499.04 38.4883ZM1611.83 162.805V117.492C1611.83 114.302 1611.34 111.568 1610.37 109.289C1609.39 107.01 1607.86 105.22 1605.78 103.918C1603.69 102.616 1600.99 101.965 1597.67 101.965C1594.87 101.965 1592.43 102.453 1590.35 103.43C1588.33 104.406 1586.77 105.806 1585.66 107.629C1584.62 109.452 1584.1 111.698 1584.1 114.367H1553.63C1553.63 109.615 1554.7 105.188 1556.85 101.086C1559 96.9844 1562.06 93.3711 1566.03 90.2461C1570.07 87.1211 1574.89 84.7122 1580.48 83.0195C1586.08 81.2617 1592.37 80.3828 1599.33 80.3828C1607.6 80.3828 1614.96 81.7826 1621.4 84.582C1627.91 87.3164 1633.06 91.4505 1636.83 96.9844C1640.61 102.453 1642.5 109.354 1642.5 117.688V161.926C1642.5 168.306 1642.85 173.319 1643.57 176.965C1644.35 180.546 1645.46 183.671 1646.89 186.34V188H1616.13C1614.7 184.94 1613.62 181.164 1612.91 176.672C1612.19 172.115 1611.83 167.492 1611.83 162.805ZM1615.64 123.547L1615.84 140.344H1600.7C1597.31 140.344 1594.38 140.767 1591.91 141.613C1589.5 142.46 1587.55 143.632 1586.05 145.129C1584.55 146.561 1583.45 148.254 1582.73 150.207C1582.08 152.095 1581.75 154.178 1581.75 156.457C1581.75 158.605 1582.27 160.559 1583.32 162.316C1584.36 164.009 1585.79 165.344 1587.61 166.32C1589.44 167.297 1591.55 167.785 1593.96 167.785C1597.93 167.785 1601.32 167.004 1604.12 165.441C1606.98 163.879 1609.2 161.991 1610.76 159.777C1612.32 157.499 1613.1 155.383 1613.1 153.43L1620.43 166.125C1619.25 168.729 1617.82 171.431 1616.13 174.23C1614.44 176.965 1612.29 179.536 1609.68 181.945C1607.08 184.289 1603.92 186.21 1600.21 187.707C1596.57 189.204 1592.17 189.953 1587.03 189.953C1580.39 189.953 1574.36 188.618 1568.96 185.949C1563.56 183.215 1559.23 179.471 1555.97 174.719C1552.78 169.966 1551.19 164.497 1551.19 158.312C1551.19 152.779 1552.2 147.863 1554.21 143.566C1556.23 139.27 1559.26 135.624 1563.3 132.629C1567.4 129.634 1572.54 127.388 1578.73 125.891C1584.91 124.328 1592.14 123.547 1600.41 123.547H1615.64ZM1692.4 104.895V188H1661.83V82.3359H1690.54L1692.4 104.895ZM1688.39 131.457L1680.78 131.652C1680.78 123.71 1681.75 116.581 1683.71 110.266C1685.66 103.951 1688.43 98.5794 1692.01 94.1523C1695.65 89.6602 1699.98 86.2422 1705 83.8984C1710.07 81.5547 1715.67 80.3828 1721.79 80.3828C1726.74 80.3828 1731.27 81.099 1735.37 82.5312C1739.47 83.9635 1742.98 86.2747 1745.91 89.4648C1748.91 92.5898 1751.19 96.7565 1752.75 101.965C1754.31 107.108 1755.09 113.456 1755.09 121.008V188H1724.43V120.91C1724.43 116.483 1723.81 113.065 1722.57 110.656C1721.34 108.247 1719.51 106.555 1717.11 105.578C1714.76 104.602 1711.9 104.113 1708.51 104.113C1704.93 104.113 1701.87 104.829 1699.33 106.262C1696.79 107.629 1694.71 109.549 1693.08 112.023C1691.45 114.497 1690.25 117.395 1689.47 120.715C1688.75 124.035 1688.39 127.616 1688.39 131.457Z" fill="#343434"/>
</svg>
